<svg xmlns="http://www.w3.org/2000/svg" viewBox="0 0 512 512">
  <defs>
    <linearGradient id="g1" x1="0%" y1="0%" x2="100%" y2="100%">
      <stop offset="0%" style="stop-color:#6366f1;stop-opacity:1" />
      <stop offset="100%" style="stop-color:#9333ea;stop-opacity:1" />
    </linearGradient>
    <filter id="shadow">
      <feDropShadow dx="0" dy="4" stdDeviation="4" flood-color="#000" flood-opacity="0.25"/>
    </filter>
  </defs>
  
  <!-- Background -->
  <rect x="32" y="32" width="448" height="448" rx="128" fill="url(#g1)" />
  
  <!-- Chat Bubble Shape / P Monogram -->
  <path d="M256 128c-70.7 0-128 57.3-128 128 0 35.3 14.3 67.2 37.5 90.5L144 384l59.5-19.8c16.1 5.3 33.3 8.2 51.1 8.2 70.7 0 128-57.3 128-128S326.7 128 256 128zm0 192c-35.3 0-64-28.7-64-64s28.7-64 64-64 64 28.7 64 64-28.7 64-64 64z" fill="#ffffff" filter="url(#shadow)"/>
  
  <!-- Inner Detail (Lightning / Spark) -->
  <path d="M256 192l-32 64h32l0 64 48-80h-32l16-48h-32z" fill="#ffffff" opacity="0.9"/>
</svg>
